<?xml version="1.0" encoding="UTF-8"?>
<!DOCTYPE svg PUBLIC "-//W3C//DTD SVG 1.1//EN" "http://www.w3.org/Graphics/SVG/1.1/DTD/svg11.dtd">
<!-- Creator: CorelDRAW X8 -->
<svg xmlns="http://www.w3.org/2000/svg" xml:space="preserve" width="151.317mm" height="48.3422mm" version="1.1" style="shape-rendering:geometricPrecision; text-rendering:geometricPrecision; image-rendering:optimizeQuality; fill-rule:evenodd; clip-rule:evenodd"
viewBox="0 0 15132 4834"
 xmlns:xlink="http://www.w3.org/1999/xlink">
 <defs>
  <style type="text/css">
   <![CDATA[
    .fil2 {fill:#ffffff}
    .fil0 {fill:#ffffff}
    .fil1 {fill:#ffffff}
    .fil3 {fill:#ffffff}
    .fil4 {fill:#ffffff;fill-rule:nonzero}
   ]]>
  </style>
 </defs>
 <g id="Слой_x0020_1">
  <metadata id="CorelCorpID_0Corel-Layer"/>
  <g id="_1919505905888">
   <g>
    <path class="fil0" d="M918 0l475 0c65,0 131,-6 151,52l293 856 -1190 0 132 -789c11,-65 73,-119 139,-119zm1018 1197l319 934 632 -934 1337 0 -176 1047 -712 0 117 -702 -475 702 -1485 0 -240 -702 -117 702 -713 0 175 -1047 1338 0zm1146 -289l580 -856c39,-58 103,-52 169,-52l475 0c65,0 109,54 99,119l-133 789 -1190 0zm918 1625l-137 819c-11,66 -74,119 -139,119l-475 0c-66,0 -110,-53 -99,-119l137 -819 713 0zm-1218 0l-490 724c-39,58 -103,52 -168,52l-133 0c-65,0 -131,6 -151,-52l-248 -724 1190 0zm-1695 0l-137 819c-11,66 -73,119 -139,119l-475 0c-65,0 -110,-53 -99,-119l137 -819 713 0z"/>
    <path class="fil1" d="M6921 2758c65,0 110,54 99,119l-80 475c-11,66 -73,119 -139,119l-1496 0c-460,0 -770,-372 -693,-832l18 -106 713 0 -18 106c-11,66 33,119 99,119l1497 0zm-2243 -514l176 -1047 713 0 -176 1047 -713 0zm224 -1336l132 -789c11,-65 74,-119 139,-119l475 0c66,0 110,54 99,119l-132 789 -713 0z"/>
    <path class="fil1" d="M10078 2639c-77,460 -512,832 -972,832l-1686 0c-65,0 -110,-53 -99,-119l80 -475c11,-65 73,-119 139,-119l1686 0c65,0 128,-53 139,-119l17 -106 713 0 -17 106zm-647 -395l5 -33c11,-65 -33,-119 -99,-119l-1374 0c-459,0 -769,-372 -692,-832l11 -63 712 0 -10 63c-11,66 33,119 99,119l1374 0c459,0 769,373 692,832l-5 33 -713 0zm-2101 -1336l13 -76c77,-459 511,-832 971,-832l1912 0c65,0 110,54 99,119l-80 475c-11,66 -73,119 -139,119l-1912 0c-65,0 -127,54 -138,119l-13 76 -713 0z"/>
   </g>
   <g>
    <path class="fil2" d="M15132 1729l-425 515 -2700 0 425 -515 2700 0zm-663 804l-761 925 -2700 0 761 -925 2700 0z"/>
    <path class="fil3" d="M11009 1l443 539 2 2 2700 0 -1 -1 -445 -541 -1671 1 -1028 0zm445 541l302 366 2700 0 -302 -366 -2700 0zm540 655l438 532 2700 0 -438 -532 -2700 0z"/>
   </g>
   <g>
    <path class="fil4" d="M0 4826l112 0 123 -458 118 300 4 0 281 -302 -123 460 114 0 172 -641 -129 0 -274 303 -112 -303 -114 0 -172 641zm861 0l122 0 107 -155 303 0 24 155 116 0 -109 -645 -108 0 -455 645zm298 -255l179 -259 41 259 -220 0zm594 255l111 0 125 -466 224 466 94 0 172 -641 -111 0 -122 453 -217 -453 -104 0 -172 641z"/>
    <path class="fil4" d="M2822 4823l449 0 28 -102 -337 0 145 -538 -113 0 -172 640zm966 11c222,0 381,-187 381,-381 0,-159 -117,-281 -288,-281 -222,0 -380,188 -380,381 0,160 115,281 287,281zm12 -103c-114,0 -182,-78 -182,-184 0,-131 103,-272 252,-272 114,0 182,79 182,184 0,131 -104,272 -252,272zm888 103c93,0 165,-24 230,-62l87 -306 -272 0 -27 98 164 0 -39 135c-33,17 -78,33 -136,33 -104,0 -183,-64 -183,-177 0,-145 116,-280 271,-280 90,0 140,37 177,82l85 -72c-43,-59 -119,-113 -254,-113 -228,0 -397,188 -397,387 0,183 144,275 294,275zm508 -11l114 0 171 -640 -113 0 -172 640zm668 9c135,0 249,-79 249,-204 0,-89 -61,-134 -159,-172 -92,-37 -124,-57 -124,-98 0,-43 44,-84 119,-84 66,0 116,25 164,73l79 -77c-52,-58 -129,-96 -235,-96 -137,0 -246,80 -246,201 0,89 67,133 164,172 92,36 118,59 118,97 0,53 -52,89 -123,89 -82,0 -141,-31 -193,-91l-85 71c58,77 151,119 272,119zm573 -9l112 0 145 -536 203 0 28 -104 -519 0 -29 104 204 0 -144 536zm560 0l114 0 171 -640 -113 0 -172 640zm754 11c111,0 186,-43 246,-101l-74 -75c-50,44 -97,73 -170,73 -101,0 -174,-69 -174,-174 0,-150 120,-282 258,-282 84,0 130,39 169,97l93 -63c-48,-83 -129,-137 -250,-137 -214,0 -387,184 -387,390 0,168 125,272 289,272z"/>
    <path class="fil4" d="M8682 4832c135,0 250,-79 250,-204 0,-89 -62,-134 -160,-172 -92,-37 -124,-57 -124,-98 0,-43 44,-84 119,-84 67,0 116,25 165,73l78 -77c-52,-58 -129,-96 -235,-96 -137,0 -246,80 -246,201 0,89 67,133 165,172 91,36 118,59 118,97 0,53 -52,89 -124,89 -82,0 -140,-31 -193,-91l-85 71c59,77 151,119 272,119zm460 -9l474 0 28 -100 -363 0 46 -172 317 0 27 -100 -317 0 45 -167 357 0 28 -101 -470 0 -172 640zm734 0l113 0 60 -223 133 0 110 223 129 0 -119 -234c134,-25 219,-102 219,-223 0,-116 -87,-183 -241,-183l-232 0 -172 640zm199 -323l59 -215 140 0c88,0 130,34 130,90 0,77 -71,125 -183,125l-146 0zm767 328l99 0 436 -645 -127 0 -321 489 -57 -489 -121 0 91 645zm604 -5l113 0 172 -640 -113 0 -172 640zm754 11c111,0 186,-43 246,-101l-74 -75c-50,44 -98,73 -170,73 -102,0 -174,-69 -174,-174 0,-150 120,-282 257,-282 84,0 131,39 169,97l94 -63c-48,-83 -129,-137 -250,-137 -214,0 -387,184 -387,390 0,168 124,272 289,272zm458 -11l475 0 27 -100 -363 0 46 -172 317 0 28 -100 -318 0 45 -167 358 0 27 -101 -470 0 -172 640z"/>
   </g>
  </g>
 </g>
</svg>
