<?xml version="1.0" encoding="UTF-8"?>
<!DOCTYPE svg PUBLIC "-//W3C//DTD SVG 1.1//EN" "http://www.w3.org/Graphics/SVG/1.1/DTD/svg11.dtd">
<!-- Creator: CorelDRAW X7 -->
<svg xmlns="http://www.w3.org/2000/svg" xml:space="preserve" width="43.1659mm" height="45.8974mm" version="1.1" style="shape-rendering:geometricPrecision; text-rendering:geometricPrecision; image-rendering:optimizeQuality; fill-rule:evenodd; clip-rule:evenodd"
viewBox="0 0 1336 1420"
 xmlns:xlink="http://www.w3.org/1999/xlink">
 <defs>
  <style type="text/css">
   <![CDATA[
    .fil1 {fill:#E31E24}
    .fil0 {fill:#1B4E9B}
   ]]>
  </style>
 </defs>
 <g id="Слой_x0020_1">
  <metadata id="CorelCorpID_0Corel-Layer"/>
  <g id="_1048618016304">
   <g>
    <path class="fil0" d="M1186 865c0,33 -41,65 -66,90l-60 60c-7,7 -12,16 -24,16 -15,0 -37,-17 -9,-44l85 -84c43,-43 32,-96 -10,-118 -50,-26 -86,19 -108,40 -45,45 -184,178 -213,221 -60,91 -59,146 -59,252 0,43 -2,78 -2,122l332 0 0 -141c0,-8 147,-149 156,-158 26,-27 51,-52 78,-79 73,-72 44,-141 43,-229l-12 -164c-2,-15 -4,-38 -4,-54 -2,-111 -160,-104 -142,17 2,11 0,19 1,30 3,41 14,182 14,223z"/>
    <path class="fil0" d="M0 921c0,49 16,88 50,121 27,27 52,52 78,79 9,8 156,150 156,158l0 141 332 0c0,-20 0,-41 0,-61 0,-23 -2,-36 -2,-58 0,-123 -1,-188 -85,-288l-186 -187c-24,-23 -41,-48 -80,-48 -37,0 -66,31 -66,68 0,39 35,65 57,86 12,12 67,61 67,76 0,13 -5,23 -21,23 -11,0 -17,-8 -23,-15 -21,-21 -108,-105 -118,-121 -10,-19 -11,-45 -8,-67 2,-12 1,-23 2,-35l13 -212c0,-70 -126,-103 -142,6 -1,10 -2,28 -3,36l-12 166c-3,45 -9,87 -9,132z"/>
   </g>
   <path class="fil1" d="M447 61c0,21 0,24 -25,41 -12,8 -31,18 -44,23 -6,3 -10,5 -16,7 -4,1 -14,3 -14,8l0 320c0,86 37,170 90,229l56 55c2,2 3,3 6,6 37,31 67,47 107,71 6,4 55,28 61,28 10,0 73,-34 88,-43l53 -36c28,-20 72,-59 92,-85 52,-66 87,-131 87,-225l0 -320c0,-5 -18,-9 -30,-14 -19,-9 -41,-19 -56,-33 -3,-3 -4,-2 -7,-5 -8,-9 -6,-14 -6,-27 -18,-4 -37,-10 -55,-15 -19,-6 -36,-10 -55,-15l-110 -31c-6,0 -47,12 -56,15 -42,12 -127,37 -166,46z"/>
  </g>
 </g>
</svg>
