<?xml version="1.0" encoding="UTF-8"?>
<!DOCTYPE svg PUBLIC "-//W3C//DTD SVG 1.1//EN" "http://www.w3.org/Graphics/SVG/1.1/DTD/svg11.dtd">
<!-- Creator: CorelDRAW X7 -->
<svg xmlns="http://www.w3.org/2000/svg" xml:space="preserve" width="40.3003mm" height="45.8974mm" version="1.1" style="shape-rendering:geometricPrecision; text-rendering:geometricPrecision; image-rendering:optimizeQuality; fill-rule:evenodd; clip-rule:evenodd"
viewBox="0 0 628 716"
 xmlns:xlink="http://www.w3.org/1999/xlink">
 <defs>
  <style type="text/css">
   <![CDATA[
    .fil0 {fill:#191970}
    .fil1 {fill:white}
   ]]>
  </style>
 </defs>
 <g id="Слой_x0020_1">
  <metadata id="CorelCorpID_0Corel-Layer"/>
  <g id="_1048596563904">
   <path class="fil0" d="M0 65c1,8 18,36 20,45 6,-1 17,-7 23,-10 21,-11 47,-22 68,-33l91 192c21,41 42,88 62,129 3,6 5,7 3,13 -4,12 -24,84 -24,92 8,0 19,2 26,4l23 8c0,-5 7,-34 11,-37 1,6 53,108 55,117 7,-2 113,-55 135,-64l135 -65 -21 -46c-4,2 -9,4 -13,6l-99 48c-4,2 -9,4 -14,6l-99 47c-2,-6 -68,-140 -77,-161l-31 -64c-2,-5 -5,-10 -8,-16 -25,-50 -51,-112 -77,-162l-39 -81c-2,-6 -5,-10 -7,-16 -3,-6 -5,-11 -8,-17 -11,6 -23,11 -34,16 -11,6 -23,11 -34,16 -21,11 -47,22 -67,33z"/>
   <path class="fil1" d="M308 304c0,4 7,19 10,23l75 158 112 -53c23,-11 47,-21 69,-33l-86 -181c-15,8 -30,14 -45,22l-135 64z"/>
   <path class="fil0" d="M186 618c0,-16 4,-27 14,-37 32,-32 84,-6 84,31 0,24 -8,39 -29,49 -19,9 -41,4 -54,-9 -7,-7 -15,-20 -15,-34zm-51 -2c0,12 3,29 8,40 15,33 50,60 88,60 30,0 48,-6 70,-25 33,-27 43,-73 26,-115 -13,-33 -50,-60 -86,-60 -20,0 -32,1 -50,10 -33,16 -56,53 -56,90z"/>
   <path class="fil1" d="M243 168c1,5 15,35 19,43l27 56c2,5 5,10 7,15 8,-1 102,-50 113,-53 -1,-6 -22,-46 -26,-57l-28 -56c-5,1 -9,4 -13,6 -5,3 -10,4 -15,7l-69 33c-3,2 -11,6 -15,6z"/>
  </g>
 </g>
</svg>
