<?xml version="1.0" encoding="UTF-8"?>
<!DOCTYPE svg PUBLIC "-//W3C//DTD SVG 1.1//EN" "http://www.w3.org/Graphics/SVG/1.1/DTD/svg11.dtd">
<!-- Creator: CorelDRAW X7 -->
<svg xmlns="http://www.w3.org/2000/svg" xml:space="preserve" width="43.2806mm" height="45.8976mm" version="1.1" style="shape-rendering:geometricPrecision; text-rendering:geometricPrecision; image-rendering:optimizeQuality; fill-rule:evenodd; clip-rule:evenodd"
viewBox="0 0 3122 3311"
 xmlns:xlink="http://www.w3.org/1999/xlink">
 <defs>
  <style type="text/css">
   <![CDATA[
    .fil1 {fill:#E31E24}
    .fil0 {fill:#1B4E9B}
   ]]>
  </style>
 </defs>
 <g id="Слой_x0020_1">
  <metadata id="CorelCorpID_0Corel-Layer"/>
  <g id="_142938133888">
   <path class="fil0" d="M2633 3060l0 -1022c0,-81 113,-81 113,0l0 1022c0,82 -113,82 -113,0zm-376 0l0 -1022c0,-81 113,-81 113,0l0 1022c0,82 -113,82 -113,0zm-376 0l0 -1022c0,-81 113,-81 113,0l0 1022c0,82 -113,82 -113,0zm-376 0l0 -1022c0,-81 112,-81 112,0l0 1022c0,82 -112,82 -112,0zm-377 0l0 -1022c0,-81 113,-81 113,0l0 1022c0,82 -113,82 -113,0zm-376 0l0 -1022c0,-81 113,-81 113,0l0 1022c0,82 -113,82 -113,0zm-376 0l0 -1022c0,-81 113,-81 113,0l0 1022c0,82 -113,82 -113,0zm1185 -1893l532 383c20,15 34,24 55,39l266 198 -1706 0c13,-16 418,-308 473,-348l380 -272zm56 -427c0,-27 4,-37 -7,-55 -20,-36 -78,-36 -98,0 -11,18 -7,28 -7,55 -60,-4 -114,-60 -138,-100 -57,-93 6,-169 -101,-169 -77,0 -48,190 43,284 40,42 117,105 196,105l0 188c0,15 -11,20 -22,29 -12,9 -19,14 -32,23l-193 140c-43,33 -83,59 -127,92 -190,144 -413,295 -602,439 -14,10 -19,16 -40,16l-489 0 0 1524 3122 0 0 -1524 -489 0c-32,0 -107,-66 -134,-85l-508 -370c-44,-33 -84,-59 -127,-92l-222 -161c-10,-7 -25,-14 -25,-31l0 -188c78,0 152,-61 193,-102 42,-42 90,-129 90,-212l0 -501c0,-40 -72,-66 -104,-22 -18,25 -9,136 -9,172 0,105 15,368 -32,445 -24,39 -80,96 -138,100z"/>
   <path class="fil1" d="M433 1975l0 0c31,0 56,26 56,57l0 1034c0,32 -25,57 -56,57l0 0c-32,0 -57,-25 -57,-57l0 -1034c0,-31 25,-57 57,-57z"/>
   <path class="fil1" d="M809 1975l0 0c31,0 56,26 56,57l0 1034c0,32 -25,57 -56,57l0 0c-32,0 -57,-25 -57,-57l0 -1034c0,-31 25,-57 57,-57z"/>
   <path class="fil1" d="M1185 1975l0 0c31,0 56,26 56,57l0 1034c0,32 -25,57 -56,57l0 0c-31,0 -57,-25 -57,-57l0 -1034c0,-31 26,-57 57,-57z"/>
   <path class="fil1" d="M1561 1975l0 0c31,0 56,26 56,57l0 1034c0,32 -25,57 -56,57l0 0c-31,0 -57,-25 -57,-57l0 -1034c0,-31 26,-57 57,-57z"/>
   <path class="fil1" d="M1937 1975l0 0c31,0 57,26 57,57l0 1034c0,32 -26,57 -57,57l0 0c-31,0 -57,-25 -57,-57l0 -1034c0,-31 26,-57 57,-57z"/>
   <path class="fil1" d="M2313 1975l0 0c31,0 57,26 57,57l0 1034c0,32 -26,57 -57,57l0 0c-31,0 -56,-25 -56,-57l0 -1034c0,-31 25,-57 56,-57z"/>
   <path class="fil1" d="M2689 1975l0 0c31,0 57,26 57,57l0 1034c0,32 -26,57 -57,57l0 0c-31,0 -56,-25 -56,-57l0 -1034c0,-31 25,-57 56,-57z"/>
  </g>
 </g>
</svg>
