<?xml version="1.0" encoding="UTF-8"?>
<!DOCTYPE svg PUBLIC "-//W3C//DTD SVG 1.1//EN" "http://www.w3.org/Graphics/SVG/1.1/DTD/svg11.dtd">
<!-- Creator: CorelDRAW X7 -->
<svg xmlns="http://www.w3.org/2000/svg" xml:space="preserve" width="34.1702mm" height="49.2368mm" version="1.1" style="shape-rendering:geometricPrecision; text-rendering:geometricPrecision; image-rendering:optimizeQuality; fill-rule:evenodd; clip-rule:evenodd"
viewBox="0 0 276 397"
 xmlns:xlink="http://www.w3.org/1999/xlink">
 <defs>
  <style type="text/css">
   <![CDATA[
    .str0 {stroke:#E31E24;stroke-width:4.03585}
    .fil2 {fill:none}
    .fil1 {fill:#E31E24}
    .fil0 {fill:#1B4E9B}
   ]]>
  </style>
 </defs>
 <g id="Слой_x0020_1">
  <metadata id="CorelCorpID_0Corel-Layer"/>
  <g id="_142272097040">
   <path class="fil0" d="M276 138c0,60 -83,186 -113,243 -5,9 -15,16 -25,16 -11,0 -20,-7 -25,-16 -30,-57 -113,-183 -113,-243 0,-74 62,-139 138,-138 76,1 138,63 138,138zm-138 -89c50,0 90,40 90,89 0,50 -40,90 -90,90 -49,0 -89,-40 -89,-90 0,-49 40,-89 89,-89z"/>
   <g>
    <path class="fil1" d="M165 216c-6,-5 -5,-7 -10,-7 -5,0 -1,5 -5,7 -3,1 -3,0 -5,2 -3,3 3,3 -10,3 -2,0 -2,-2 -3,-5 3,1 4,2 7,2 3,0 1,0 3,-1 3,-2 8,0 8,-11 0,-2 -1,-3 -1,-5 5,-2 1,-6 5,-13 3,-5 6,-4 7,-11l7 0c4,-6 6,-13 11,-17 4,1 5,3 7,6 6,4 6,2 9,4 5,3 2,4 4,8 2,3 1,1 4,4 2,2 0,1 4,2 -9,13 -27,29 -42,32zm-84 -36c15,-4 2,-2 11,-5 2,-1 2,-1 4,-2 0,4 0,4 1,7 1,5 -1,0 -1,6 0,3 0,0 1,2 3,-2 1,-1 5,-4 5,3 2,2 5,7 2,4 1,0 4,6 1,3 2,2 5,4 7,3 -1,7 12,7 -2,6 -6,-2 -6,12 -9,-1 -31,-11 -34,-16 3,0 3,-1 4,-2 -12,-3 -3,-3 -10,-4 -3,-1 -4,-2 -8,-7 5,-7 8,-2 8,-7 0,-3 -1,0 -1,-4zm-26 -41c0,-4 0,-7 0,-11 1,-6 4,-2 4,1 3,0 3,0 4,0 1,3 1,3 4,4 0,-5 0,-3 2,-4 1,4 1,5 1,9 1,5 2,3 3,8 2,5 0,4 5,6 17,5 -5,16 -13,11 0,-1 0,-1 -2,-2l0 3c-6,-5 2,-1 -4,-2 -1,-1 0,1 -1,-1 -2,-2 -3,-19 -3,-22zm48 -32c2,0 1,-1 4,-1 0,4 1,3 1,7 -5,0 -3,0 -5,-4l-8 0c1,-6 4,-2 8,-2zm-25 -27c4,-3 5,-5 8,-5 1,2 1,0 4,4 5,6 7,-3 11,7l2 3c-3,0 -3,0 -5,1 0,4 0,2 2,5 -9,2 -8,4 -15,-6 -2,-4 -5,-5 -7,-9zm47 -19c-3,0 -1,0 -4,-1 0,3 1,3 1,5 2,4 -1,2 -1,4 0,6 3,4 7,5 5,2 0,6 6,7l0 2c-2,1 -6,2 -8,3 -1,1 -2,1 -3,2 -1,1 -2,1 -2,3 3,0 4,-1 4,-4 5,0 6,1 7,4 -5,-1 -5,-2 -10,4 -2,2 -1,1 -2,4 0,2 0,4 0,6 3,0 3,0 5,1 0,5 0,2 2,4 5,5 1,3 1,11 -9,0 -5,-1 -10,-2 0,-3 2,-6 1,-8 -1,-3 -3,0 -6,0 -8,0 1,-10 -11,-16 1,-4 0,1 1,-2 2,-3 1,-5 1,-9 1,-3 4,-5 -2,-6l0 -4c-6,1 0,-3 -6,-4l0 7c-4,1 -6,-1 -8,-5 3,-3 15,-9 20,-11 33,-13 72,-2 93,24 5,6 8,12 12,19 -7,0 -5,2 -14,2 -2,0 -2,-2 -4,-3 -5,-3 -1,0 -5,0 -2,0 -18,-8 -19,7 -2,20 4,12 -9,21 -4,3 -4,4 -7,3 -3,0 2,0 -4,0 -3,0 -2,1 -5,-2l-5 -3c-5,-3 0,-5 -9,-7 -1,-6 -1,-7 -1,-13 0,-2 -1,-3 -1,-6 0,-2 1,-3 1,-7 6,0 5,1 9,-5l2 -3c-1,-3 -2,-2 -2,-3 0,-7 8,-17 -1,-19 -2,4 -2,6 -4,10 -11,0 -4,-15 -4,-18 -5,0 -4,3 -6,3zm-72 72c0,18 1,27 9,44 4,9 10,16 17,23 40,40 111,26 135,-24 14,-29 11,-63 -8,-88 -31,-42 -92,-46 -127,-11 -14,14 -26,34 -26,56z"/>
    <path class="fil2 str0" d="M138 54c46,0 84,38 84,84 0,47 -38,84 -84,84 -46,0 -84,-37 -84,-84 0,-46 38,-84 84,-84z"/>
   </g>
  </g>
 </g>
</svg>
